# xmcd
#
# Track frame offsets:
#	150
#	20699
#	41114
#	59758
#	80030
#	97426
#	119446
#	142887
#	167472
#	184159
#	205191
#	228267
#	248020
#	265187
#
# Disc length: 3788 seconds
#
# Revision: 0
# Processed by: cddbd v1.5.2PL0 Copyright (c) Steve Scherf et al.
# Submitted via: dBpowerAMP V4.0
#
DISCID=ca0eca0e
DTITLE=farid ortiz - con el favor de dios
DYEAR=1900
DGENRE=
TTITLE0=el mosquito
TTITLE1=por darte mi vida
TTITLE2=el cachaco criticon
TTITLE3=al que le van a dar le guardan
TTITLE4=la lira
TTITLE5=titulo de actriz
TTITLE6=a un amigo
TTITLE7=llegastes a mivida
TTITLE8=tu crees que ea asi
TTITLE9=no hay palabras
TTITLE10=nadie es eterno
TTITLE11=la azafata
TTITLE12=yo ntambien tengo
TTITLE13=catalina
EXTD=
EXTT0=
EXTT1=
EXTT2=
EXTT3=
EXTT4=
EXTT5=
EXTT6=
EXTT7=
EXTT8=
EXTT9=
EXTT10=
EXTT11=
EXTT12=
EXTT13=
PLAYORDER=
